<?xml version="1.0" encoding="UTF-8" standalone="no"?>
<!-- Generator: Adobe Illustrator 21.0.0, SVG Export Plug-In . SVG Version: 6.00 Build 0)  -->

<svg
   version="1.1"
   x="0px"
   y="0px"
   viewBox="0 0 2788344 2938732.5"
   xml:space="preserve"
   id="svg520"
   width="2788344"
   height="2938732.5"
   xmlns="http://www.w3.org/2000/svg"
   xmlns:svg="http://www.w3.org/2000/svg"><defs
   id="defs520" />
<style
   type="text/css"
   id="style1">
	.Drop_x0020_Shadow{fill:none;}
	.Round_x0020_Corners_x0020_2_x0020_pt{fill:#FFFFFF;stroke:#231F20;stroke-miterlimit:10;}
	.Live_x0020_Reflect_x0020_X{fill:none;}
	.Bevel_x0020_Soft{fill:url(#SVGID_1_);}
	.Dusk{fill:#FFFFFF;}
	.Foliage_GS{fill:#FFDD00;}
	.Pompadour_GS{fill-rule:evenodd;clip-rule:evenodd;fill:#44ADE2;}
	.st0{fill:#4F3CC9;}
	.st1{fill:#F582AE;}
	.st2{fill:#FFFFFF;}
	.st3{fill:#77E0B5;}
	.st4{fill:#CECECE;}
	.st5{opacity:0.5;}
</style>
<g
   id="Illustration"
   transform="translate(-1436412.3,-374636.19)">
			<g
   id="g193">
				<g
   id="Stars">
					<g
   id="g9">
						<g
   id="g8">
							<g
   id="g7">
								<path
   class="st0"
   d="m 754.6,1958.6 -19.1,-4.2 -4.3,-19.1 c -0.2,-0.7 -0.8,-1.2 -1.4,-1.2 -0.7,0 -1.3,0.5 -1.4,1.2 l -4.4,19.2 -19.1,4.5 c -0.7,0.2 -1.1,0.8 -1.1,1.5 0,0.7 0.5,1.3 1.2,1.4 l 19.1,4.2 4.3,19.1 c 0.2,0.7 0.8,1.2 1.4,1.2 0.7,0 1.3,-0.5 1.4,-1.2 l 4.4,-19.2 19.1,-4.5 c 0.7,-0.2 1.1,-0.8 1.1,-1.5 0,-0.6 -0.5,-1.2 -1.2,-1.4 z"
   id="path7" />
							</g>
						</g>
					</g>
					<g
   id="g12">
						<g
   id="g11">
							<g
   id="g10">
								<path
   class="st0"
   d="m 1396.9,1771.5 -19.1,-4.2 -4.3,-19.1 c -0.2,-0.7 -0.8,-1.2 -1.4,-1.2 -0.7,0 -1.3,0.5 -1.4,1.2 l -4.4,19.2 -19.1,4.5 c -0.7,0.2 -1.1,0.8 -1.1,1.5 0,0.7 0.5,1.3 1.2,1.4 l 19.1,4.2 4.3,19.1 c 0.2,0.7 0.8,1.2 1.4,1.2 0.7,0 1.3,-0.5 1.4,-1.2 l 4.4,-19.2 19.1,-4.5 c 0.7,-0.2 1.1,-0.8 1.1,-1.5 0,-0.6 -0.5,-1.2 -1.2,-1.4 z"
   id="path9" />
							</g>
						</g>
					</g>
					<g
   id="g15">
						<g
   id="g14">
							<g
   id="g13">
								<path
   class="st0"
   d="m 789.3,1876.7 -9.9,-2.2 -2.2,-9.9 c -0.1,-0.3 -0.4,-0.6 -0.7,-0.6 -0.3,0 -0.7,0.2 -0.7,0.6 l -2.3,9.9 -9.9,2.3 c -0.3,0.1 -0.6,0.4 -0.6,0.8 0,0.4 0.3,0.7 0.6,0.7 l 9.9,2.2 2.2,9.9 c 0.1,0.3 0.4,0.6 0.7,0.6 0.3,0 0.7,-0.2 0.7,-0.6 l 2.3,-9.9 9.9,-2.3 c 0.3,-0.1 0.6,-0.4 0.6,-0.8 0,-0.3 -0.2,-0.6 -0.6,-0.7 z"
   id="path12" />
							</g>
						</g>
					</g>
					<g
   id="g18">
						<g
   id="g17">
							<g
   id="g16">
								<path
   class="st0"
   d="m 1600.8,2719.7 19.1,-4.2 4.3,-19.1 c 0.2,-0.7 0.8,-1.2 1.4,-1.2 0.6,0 1.3,0.5 1.4,1.2 l 4.4,19.2 19.1,4.5 c 0.7,0.2 1.1,0.8 1.1,1.5 0,0.7 -0.5,1.3 -1.2,1.4 l -19.1,4.2 -4.3,19.1 c -0.2,0.7 -0.8,1.2 -1.4,1.2 -0.6,0 -1.3,-0.5 -1.4,-1.2 l -4.4,-19.2 -19.1,-4.5 c -0.7,-0.2 -1.1,-0.8 -1.1,-1.5 0,-0.7 0.5,-1.3 1.2,-1.4 z"
   id="path15" />
							</g>
						</g>
					</g>
					<g
   id="g21">
						<g
   id="g20">
							<g
   id="g19">
								<path
   class="st0"
   d="m 1566,2637.7 9.9,-2.2 2.2,-9.9 c 0.1,-0.3 0.4,-0.6 0.7,-0.6 0.4,0 0.7,0.2 0.7,0.6 l 2.3,9.9 9.9,2.3 c 0.3,0.1 0.6,0.4 0.6,0.8 0,0.4 -0.3,0.7 -0.6,0.7 l -9.9,2.2 -2.2,9.9 c -0.1,0.3 -0.4,0.6 -0.7,0.6 -0.4,0 -0.7,-0.2 -0.7,-0.6 l -2.3,-9.9 -9.9,-2.3 c -0.3,-0.1 -0.6,-0.4 -0.6,-0.8 0,-0.3 0.3,-0.6 0.6,-0.7 z"
   id="path18" />
							</g>
						</g>
					</g>
					<g
   id="g24">
						<g
   id="g23">
							<g
   id="g22">
								<path
   class="st0"
   d="m 1523.4,2035 -9.9,-2.2 -2.2,-9.9 c -0.1,-0.3 -0.4,-0.6 -0.7,-0.6 -0.4,0 -0.7,0.2 -0.7,0.6 l -2.3,9.9 -9.9,2.3 c -0.3,0.1 -0.6,0.4 -0.6,0.8 0,0.4 0.3,0.7 0.6,0.7 l 9.9,2.2 2.2,9.9 c 0.1,0.3 0.4,0.6 0.7,0.6 0.4,0 0.7,-0.2 0.7,-0.6 l 2.3,-9.9 9.9,-2.3 c 0.3,-0.1 0.6,-0.4 0.6,-0.8 0,-0.3 -0.2,-0.6 -0.6,-0.7 z"
   id="path21" />
							</g>
						</g>
					</g>
					<g
   id="g27">
						<g
   id="g26">
							<g
   id="g25">
								<path
   class="st0"
   d="m 918.3,2710.7 -19.1,-4.2 -4.3,-19.1 c -0.2,-0.7 -0.8,-1.2 -1.4,-1.2 -0.7,0 -1.3,0.5 -1.4,1.2 l -4.4,19.2 -19.1,4.5 c -0.7,0.2 -1.1,0.8 -1.1,1.5 0,0.7 0.5,1.3 1.2,1.4 l 19.1,4.2 4.3,19.1 c 0.2,0.7 0.8,1.2 1.4,1.2 0.7,0 1.3,-0.5 1.4,-1.2 l 4.4,-19.2 19.1,-4.5 c 0.7,-0.2 1.1,-0.8 1.1,-1.5 0,-0.7 -0.5,-1.2 -1.2,-1.4 z"
   id="path24" />
							</g>
						</g>
					</g>
				</g>
				<g
   id="Rocket">
					<g
   id="g46">
						<g
   id="g30">
							<g
   id="g29">
								<g
   id="g28">
									<path
   class="st1"
   d="m 1560.6,1889.8 c 0,0 10.1,-25.7 -7.8,-65.5 -1.1,-2.5 -4.8,-2.3 -5.6,0.3 -2.9,9.1 -8,24.1 -12,30.1 z"
   id="path27" />
								</g>
							</g>
						</g>
						<g
   id="g33">
							<g
   id="g32">
								<g
   id="g31">
									<path
   class="st1"
   d="m 1521.6,1908.1 c 0,0 -26.2,-8.7 -45.4,-47.9 -1.2,-2.5 1.3,-5.2 3.9,-4.1 8.8,3.6 23.6,9.3 30.8,10 z"
   id="path30" />
								</g>
							</g>
						</g>
						<g
   id="g36">
							<g
   id="g35">
								<g
   id="g34">
									<path
   class="st0"
   d="m 1545,1860.3 c -2.4,-3.1 -4.9,-6.2 -7.5,-9.4 l -31,14.5 c 0.8,4 1.6,8 2.4,11.7 12.7,57.5 33.7,85 50,98.1 l 29.6,-13.9 c 0.3,-20.8 -7.5,-54.5 -43.5,-101 z"
   id="path33" />
								</g>
							</g>
						</g>
						<g
   id="g39">
							<g
   id="g38">
								<g
   id="g37">
									
										<circle
   transform="matrix(0.9055,-0.4243,0.4243,0.9055,-674.3447,844.2992)"
   class="st2"
   cx="1558.7"
   cy="1936.4"
   id="ellipse36"
   r="13.6" />
								</g>
							</g>
						</g>
						<g
   id="g42">
							<g
   id="g41">
								<g
   id="g40">
									<path
   class="st1"
   d="m 1558.9,1975.3 29.6,-13.9 c -0.2,17.1 -5.9,25.6 -5.9,25.6 l -0.3,0.1 c 0.1,0 -10.1,-1.1 -23.4,-11.8 z"
   id="path39" />
								</g>
							</g>
						</g>
						<g
   id="g45">
							<g
   id="g44">
								<g
   id="g43">
									<path
   class="st1"
   d="m 1541.4,1897.7 v 0 c -1.7,0.8 -3.8,0.2 -4.7,-1.5 l -11.3,-19.2 c -2.3,-4 -4.3,-8.1 -5.8,-12.4 l -7.5,-21 c -0.6,-1.8 0.2,-3.8 1.9,-4.6 v 0 c 1.7,-0.8 3.8,-0.2 4.7,1.5 l 11.3,19.2 c 2.3,4 4.3,8.1 5.8,12.4 l 7.5,21 c 0.6,1.8 -0.2,3.8 -1.9,4.6 z"
   id="path42" />
								</g>
							</g>
						</g>
					</g>
					<g
   id="g49">
						<g
   id="g48">
							<g
   id="g47">
								<path
   class="st0"
   d="m 1518.1,1830.4 c -0.2,-0.5 -22.9,-51.1 -57.3,-59 l 1.6,-7 c 37.9,8.8 61.3,60.9 62.3,63.1 z"
   id="path46" />
							</g>
						</g>
					</g>
					<g
   id="g52">
						<g
   id="g51">
							<g
   id="g50">
								<path
   class="st0"
   d="m 1498.6,1835.2 c -0.1,-0.2 -8.2,-18.3 -25.5,-27.2 l 3.3,-6.4 c 19.6,10.1 28.4,29.8 28.7,30.7 z"
   id="path49" />
							</g>
						</g>
					</g>
				</g>
				<g
   id="Astronaut_and_Moon">
					<g
   id="g55">
						<g
   id="g54">
							<g
   id="g53">
								<path
   class="st3"
   d="m 930.1,2003 57.8,280.4 347.2,-71.6 -57.8,-280.4 c -3.4,-16.7 -19.7,-27.4 -36.4,-24 l -286.8,59.2 c -16.7,3.4 -27.4,19.7 -24,36.4 z"
   id="path52" />
							</g>
						</g>
					</g>
					<g
   id="g58">
						<g
   id="g57">
							<g
   id="g56">
								<path
   class="st0"
   d="m 945.2,2052.3 61.3,279.7 346.3,-75.9 -61.3,-279.7 c -3.6,-16.6 -20.1,-27.2 -36.7,-23.5 l -286,62.7 c -16.7,3.6 -27.2,20 -23.6,36.7 z"
   id="path55" />
							</g>
						</g>
					</g>
					<g
   id="g65">
						<g
   id="g61">
							<g
   id="g60">
								<g
   id="g59">
									<path
   class="st1"
   d="m 1538.8,2385.9 c -15.7,187.2 -180.1,326.1 -367.3,310.4 -64.2,-5.4 -122.7,-28.2 -171.2,-63.5 C 907.2,2565.2 850.7,2452 861,2329 c 15.7,-187.2 180.1,-326.1 367.3,-310.4 159.4,13.4 283.8,134.6 307.6,285.9 4.2,26.4 5.3,53.6 2.9,81.4 z"
   id="path58" />
								</g>
							</g>
						</g>
						<g
   id="g64">
							<g
   id="g63">
								<g
   id="g62">
									<path
   class="st0"
   d="m 1200.6,2703 c -9.8,0 -19.6,-0.4 -29.5,-1.2 -62.9,-5.3 -123.1,-27.6 -173.9,-64.5 -47.2,-34.3 -85.3,-80.4 -110.1,-133.2 -25.6,-54.5 -36.4,-115.1 -31.3,-175.4 7.7,-92 50.8,-175.4 121.2,-235 70.5,-59.6 159.9,-88.1 251.9,-80.4 78.7,6.6 150.6,38.6 207.9,92.7 55.6,52.4 92.8,122.7 104.5,197.7 4.3,27.2 5.3,55 2.9,82.7 v 0 c -7.7,92 -50.8,175.4 -121.2,235 -63,53.1 -141,81.6 -222.4,81.6 z m -1.2,-680.2 c -78.9,0 -154.5,27.6 -215.4,79.1 -68.3,57.7 -110,138.5 -117.5,227.6 -9.9,117.7 41.4,229.5 137.1,299 49.2,35.8 107.5,57.4 168.5,62.5 89.1,7.5 175.7,-20.2 244,-77.9 68.3,-57.7 110,-138.5 117.4,-227.6 v 0 c 2.3,-26.8 1.3,-53.8 -2.8,-80.1 -24,-152.7 -148.4,-268.4 -302.7,-281.3 -9.6,-0.9 -19.1,-1.3 -28.6,-1.3 z"
   id="path61" />
								</g>
							</g>
						</g>
					</g>
					<g
   id="g70">
						<g
   id="g67">
							<g
   id="g66">
								<path
   class="st2"
   d="m 1055.8,2016.1 c 0,0 -17.1,10.2 -34.5,30.8 -2.4,2.8 -4.8,5.8 -7.1,9 v 0 c -0.1,0.1 -0.1,0.2 -0.2,0.3 -4.2,5.7 -8.2,12.1 -11.8,19 -0.9,1.8 -1.9,3.6 -2.7,5.5 -1.6,3.4 -3.1,7 -4.6,10.7 -3.6,9.5 -6.4,19.9 -8,31.2 -0.6,3.8 -1,7.7 -1.2,11.7 -0.9,14.8 0.3,31.1 4.4,48.8 l -77.3,34.3 c 0,0 -15,-36.3 -14,-84.4 0.1,-3.9 0.3,-7.9 0.6,-12 1.2,-16.2 4.4,-33.4 10.6,-50.9 v 0 c 1.4,-3.9 2.9,-7.8 4.6,-11.7 2.3,-5.4 5,-10.9 8,-16.3 4.6,-8.2 9.9,-16.4 16.1,-24.4 0.2,-0.3 0.5,-0.6 0.7,-0.9 2.7,-3.4 5.5,-6.8 8.6,-10.2 13.4,-14.9 30.3,-29.1 51.3,-42.1 z"
   id="path65" />
							</g>
						</g>
						<g
   id="g69">
							<g
   id="g68">
								<path
   class="st0"
   d="m 910,2224.5 -2.1,-5.1 c -0.6,-1.5 -15.4,-37.9 -14.4,-86.6 0.1,-4.1 0.3,-8.3 0.6,-12.3 1.4,-17.9 4.9,-35.2 10.5,-51.4 v 0 l 0.3,-0.9 c 1.6,-4.4 3.1,-8.3 4.7,-12 2.4,-5.7 5.2,-11.3 8.2,-16.8 4.8,-8.6 10.4,-17.1 16.6,-25.1 0.2,-0.3 0.5,-0.7 0.8,-1 2.7,-3.4 5.6,-6.9 8.8,-10.4 14.5,-16 32.1,-30.5 52.5,-43.1 l 3.5,-2.1 64.8,59.4 -6.2,3.7 c -0.3,0.2 -16.7,10.1 -33.1,29.7 -2.1,2.5 -4,4.9 -5.8,7.3 v 0.1 l -1.3,1.7 c -4.2,5.8 -8,11.9 -11.3,18.3 -0.9,1.8 -1.8,3.5 -2.6,5.3 -1.6,3.4 -3.1,6.9 -4.4,10.3 -3.7,9.6 -6.3,19.7 -7.7,30 -0.5,3.7 -0.9,7.4 -1.1,11.3 -0.9,15.2 0.5,31.1 4.3,47.2 l 1,4.4 z m 5.3,-153.3 -0.2,0.5 c -5.5,15.6 -9,32.3 -10.3,49.5 -0.3,3.8 -0.5,7.8 -0.5,11.7 -0.7,36.1 7.8,65.6 11.7,77.1 l 68,-30.2 c -3.3,-15.7 -4.5,-31.1 -3.6,-45.9 0.2,-4.2 0.7,-8.3 1.2,-12.2 1.5,-11 4.3,-21.9 8.3,-32.3 1.4,-3.6 3,-7.4 4.7,-11 0.9,-1.9 1.8,-3.8 2.8,-5.7 3.6,-6.8 7.7,-13.5 12.2,-19.7 l 0.2,-0.3 c 2.2,-3.1 4.6,-6.1 7.3,-9.3 11.7,-13.9 23.2,-23.1 29.9,-28 l -48.3,-44.3 c -18,11.5 -33.7,24.6 -46.7,39 -3,3.3 -5.8,6.6 -8.3,9.9 -0.3,0.4 -0.5,0.6 -0.7,0.9 -5.9,7.6 -11.2,15.6 -15.7,23.7 -2.8,5.1 -5.5,10.4 -7.8,15.8 -1.4,3.4 -2.8,6.9 -4.2,10.8 z"
   id="path67" />
							</g>
						</g>
					</g>
					<g
   id="g75">
						<g
   id="g72">
							<g
   id="g71">
								<path
   class="st2"
   d="m 1369.2,2127 -84.3,-7.1 c -1.9,-18.3 -6.2,-34.2 -12.1,-48.1 -1.5,-3.6 -3.1,-7 -4.8,-10.3 -4.9,-9.4 -10.5,-17.8 -16.5,-25.2 -2.4,-3 -4.9,-5.8 -7.5,-8.5 -6.8,-7.2 -14,-13.2 -21.1,-18.4 -3.2,-2.3 -6.4,-4.4 -9.6,-6.4 -24.3,-15 -45.3,-19.3 -45.3,-19.3 l 36.3,-67.4 c 25.3,5.6 46.7,14.1 64.8,24.3 4.2,2.4 8.2,4.8 12,7.4 13.8,9.2 25.5,19.5 35.3,30.5 2.9,3.2 5.6,6.4 8.1,9.7 11.4,14.6 20,30 26.3,45 1.6,3.7 3,7.4 4.3,11.1 16.3,44.5 14.1,82.7 14.1,82.7 z"
   id="path70" />
							</g>
						</g>
						<g
   id="g74">
							<g
   id="g73">
								<path
   class="st0"
   d="m 1374.2,2132.9 -94.2,-7.9 -0.5,-4.4 c -1.8,-16.8 -5.7,-32.4 -11.7,-46.5 -1.4,-3.3 -2.9,-6.5 -4.6,-9.9 -4.4,-8.6 -9.8,-16.8 -15.9,-24.2 -2.3,-2.8 -4.7,-5.6 -7.2,-8.2 -6.1,-6.4 -13,-12.4 -20.4,-17.7 -3,-2.1 -6.1,-4.2 -9.2,-6.2 -23.1,-14.3 -43.3,-18.6 -43.5,-18.6 l -7.1,-1.5 41.7,-77.3 4,0.9 c 24.4,5.5 46.7,13.8 66.3,24.9 4.4,2.5 8.5,5.1 12.4,7.6 13.5,8.9 25.7,19.5 36.3,31.3 2.9,3.3 5.8,6.6 8.4,10 10.8,13.8 19.9,29.4 27,46.2 1.6,3.8 3.1,7.6 4.4,11.3 16.2,45 14.2,83.2 14.1,84.8 z m -84.5,-18 74.1,6.2 c -0.1,-12 -1.7,-41.8 -13.6,-74.9 -1.3,-3.5 -2.7,-7.2 -4.2,-10.8 -6.8,-16 -15.4,-30.7 -25.6,-43.8 -2.5,-3.2 -5.1,-6.3 -7.9,-9.4 -10,-11.2 -21.6,-21.1 -34.3,-29.6 -3.6,-2.4 -7.6,-4.9 -11.7,-7.2 -17.5,-9.9 -37.5,-17.6 -59.3,-22.8 l -31.1,57.7 c 8.4,2.5 23.5,7.9 40.1,18.2 3.4,2.1 6.7,4.3 9.9,6.6 7.9,5.7 15.3,12.1 21.8,19 2.7,2.8 5.3,5.8 7.8,8.9 6.6,8 12.3,16.8 17.1,26.1 1.9,3.7 3.5,7.2 5,10.7 5.9,13.8 9.9,29 11.9,45.1 z"
   id="path72" />
							</g>
						</g>
					</g>
					<g
   id="g80">
						<g
   id="g77">
							<g
   id="g76">
								<path
   class="st2"
   d="m 1351.3,2096.2 c -18.4,-6.2 -45.6,-11 -70,1.7 0,0 -45.8,40.4 -46.4,57.5 0,0 2.5,24.6 35.3,10.2 0,0 -16.3,75.4 45.5,81.5 0,0 44.9,7.3 56.3,-50.3 0.4,-1.8 0.5,-3.7 0.5,-5.6 l 0.1,-65.1 c 0.1,-13.4 -8.5,-25.5 -21.3,-29.9 z"
   id="path75" />
							</g>
						</g>
						<g
   id="g79">
							<g
   id="g78">
								<path
   class="st0"
   d="m 1320.1,2252.8 c -2.5,0 -4.3,-0.2 -5,-0.3 -17.5,-1.7 -31,-8.8 -39.9,-21.1 -13.5,-18.5 -13.1,-44 -11.7,-57.5 -9.4,2.7 -17.3,2.3 -23.4,-1.3 -9.3,-5.5 -10.5,-16.1 -10.6,-16.5 v -0.4 -0.4 c 0.6,-18.5 40.2,-54.4 48.2,-61.4 l 0.5,-0.4 0.6,-0.3 c 26,-13.6 54.7,-8.7 74.2,-2.1 v 0 c 15,5.1 25.1,19.2 25.1,35.1 l -0.1,65.1 c 0,2.3 -0.2,4.6 -0.6,6.6 -9.9,49.9 -44.1,54.9 -57.3,54.9 z m -42.4,-96.3 -2.2,10.3 c -0.1,0.4 -7.5,36.3 8.5,58.2 7.1,9.7 17.9,15.3 32.3,16.7 h 0.3 c 1.6,0.2 39.9,5.5 50.1,-46 0.3,-1.4 0.4,-2.9 0.4,-4.5 l 0.1,-65.1 c 0,-11.3 -7.1,-21.2 -17.8,-24.8 -17.4,-5.9 -42.7,-10.4 -65.2,1.1 -18,16 -43,42.4 -44,52.8 0.2,1.2 1.3,5.8 5.3,8 4.7,2.7 12.4,1.8 22.4,-2.5 z"
   id="path77" />
							</g>
						</g>
					</g>
					<g
   id="g84">
						<g
   id="g83">
							<g
   id="g82">
								<g
   id="g81">
									<path
   class="st1"
   d="m 1355.4,2044.4 c -19.1,-0.8 -55.5,1.6 -82.5,27.5 -1.5,-3.6 -3.1,-7 -4.8,-10.3 27.5,-24.7 61.9,-28.6 83,-28.2 1.5,3.7 2.9,7.4 4.3,11 z"
   id="path80" />
								</g>
							</g>
						</g>
					</g>
					<g
   id="g88">
						<g
   id="g87">
							<g
   id="g86">
								<g
   id="g85">
									<path
   class="st1"
   d="m 1324.7,1988.3 c -16.9,1.3 -51.3,9.1 -73.2,48.1 -2.4,-3 -4.9,-5.8 -7.5,-8.5 21.3,-35.2 52.6,-46 72.6,-49.2 2.8,3.1 5.6,6.3 8.1,9.6 z"
   id="path84" />
								</g>
							</g>
						</g>
					</g>
					<g
   id="g92">
						<g
   id="g91">
							<g
   id="g90">
								<g
   id="g89">
									<path
   class="st1"
   d="m 1281.3,1948.2 c -15.1,3.7 -48.5,16.7 -58.3,61.3 -3.2,-2.3 -6.4,-4.4 -9.6,-6.4 10.1,-38.9 37.3,-55.5 55.9,-62.3 4.1,2.3 8.1,4.8 12,7.4 z"
   id="path88" />
								</g>
							</g>
						</g>
					</g>
					<g
   id="g96">
						<g
   id="g95">
							<g
   id="g94">
								<g
   id="g93">
									<path
   class="st1"
   d="m 986.9,2122.5 c -0.6,3.8 -1,7.7 -1.2,11.7 -35.6,-21.4 -71.9,-8.5 -86.9,-1.4 0.1,-3.9 0.3,-7.9 0.6,-12 18.4,-7.5 52.9,-16.7 87.5,1.7 z"
   id="path92" />
								</g>
							</g>
						</g>
					</g>
					<g
   id="g100">
						<g
   id="g99">
							<g
   id="g98">
								<g
   id="g97">
									<path
   class="st1"
   d="m 999.5,2080.7 c -1.6,3.4 -3.1,7 -4.6,10.7 -28,-28.9 -68.4,-24.7 -84.9,-21.4 1.4,-3.9 2.9,-7.8 4.6,-11.7 20.4,-3 57.1,-3.5 84.9,22.4 z"
   id="path96" />
								</g>
							</g>
						</g>
					</g>
					<g
   id="g104">
						<g
   id="g103">
							<g
   id="g102">
								<g
   id="g101">
									<path
   class="st1"
   d="m 1021.3,2046.9 c -2.4,2.8 -4.8,5.8 -7.1,9 -20.7,-34.3 -57.9,-39 -74.8,-39.2 2.7,-3.4 5.5,-6.8 8.6,-10.2 20.4,1.9 53,9.9 73.3,40.4 z"
   id="path100" />
								</g>
							</g>
						</g>
					</g>
					<g
   id="g109">
						<g
   id="g106">
							<g
   id="g105">
								<path
   class="st2"
   d="m 919.7,2182.4 c 15.3,-11.9 39.4,-25.4 66.7,-21.3 0,0 56.5,23.1 62.6,39.1 0,0 5.7,24 -30,21.2 0,0 40.1,65.9 -16.3,91.9 0,0 -40,21.6 -69.7,-29 -0.9,-1.6 -1.7,-3.3 -2.3,-5.1 l -21.5,-61.4 c -4.4,-12.9 -0.2,-27.1 10.5,-35.4 z"
   id="path104" />
							</g>
						</g>
						<g
   id="g108">
							<g
   id="g107">
								<path
   class="st0"
   d="m 982.1,2323.1 c -15.6,0 -36.5,-6.8 -53.7,-36.1 -1.1,-1.8 -2,-3.8 -2.8,-6 l -21.5,-61.4 c -5.3,-15 -0.3,-31.6 12.2,-41.4 v 0 c 16.3,-12.6 41.7,-26.7 70.8,-22.4 l 0.6,0.1 0.6,0.2 c 9.8,4 59,24.9 65.6,42.2 l 0.2,0.7 c 0.1,0.4 2.5,10.8 -4.5,19.1 -4.6,5.4 -11.9,8.4 -21.7,8.9 5.8,12.3 14.5,36.2 7.8,58.2 -4.4,14.5 -14.8,25.7 -30.8,33.1 -1.4,0.6 -10.5,4.8 -22.8,4.8 z M 923,2186.7 c -8.9,6.9 -12.3,18.7 -8.6,29.3 l 21.5,61.4 c 0.5,1.5 1.2,2.9 1.9,4.1 26.5,45.3 61,27.7 62.5,27 l 0.3,-0.1 c 13.1,-6 21.5,-14.9 25,-26.4 7.9,-26 -10.9,-57.4 -11.1,-57.8 l -5.5,-9 10.5,0.8 c 10.8,0.9 18.4,-0.8 22,-4.9 3,-3.4 2.6,-8 2.4,-9.3 -4.3,-9.5 -36.6,-26.2 -58.9,-35.4 -25.1,-3.5 -47.5,9 -62,20.3 z"
   id="path106" />
							</g>
						</g>
					</g>
					<g
   id="g112">
						<g
   id="g111">
							<g
   id="g110">
								<path
   class="st0"
   d="m 1191.6,1818.3 18.7,-3.6 c 9.9,-1.9 19.5,4.6 21.5,14.5 l 8.3,42.8 c 1.9,9.9 -4.6,19.5 -14.5,21.5 l -18.7,3.6 z"
   id="path109" />
							</g>
						</g>
					</g>
					<g
   id="g115">
						<g
   id="g114">
							<g
   id="g113">
								<path
   class="st0"
   d="m 951.1,1864.8 -18.7,3.6 c -9.9,1.9 -16.4,11.5 -14.5,21.5 l 8.3,42.8 c 1.9,9.9 11.5,16.4 21.5,14.5 l 18.7,-3.6 z"
   id="path112" />
							</g>
						</g>
					</g>
					<g
   id="g120">
						<g
   id="g117">
							<g
   id="g116">
								
									<circle
   transform="matrix(0.9818,-0.1897,0.1897,0.9818,-337.4051,239.0026)"
   class="st2"
   cx="1079.5"
   cy="1881.6"
   id="ellipse115"
   r="139.2" />
							</g>
						</g>
						<g
   id="g119">
							<g
   id="g118">
								<path
   class="st0"
   d="m 1079.2,2026.2 c -28.6,0 -56.5,-8.5 -80.7,-24.8 -32,-21.6 -53.6,-54.4 -61,-92.3 -15.1,-78.3 36.2,-154.2 114.5,-169.4 37.9,-7.3 76.4,0.5 108.4,22.2 32,21.6 53.6,54.4 61,92.3 15.1,78.3 -36.2,154.2 -114.5,169.4 -9.2,1.7 -18.5,2.6 -27.7,2.6 z m 0.6,-278.4 c -8.5,0 -17.1,0.8 -25.7,2.5 -72.4,14 -120,84.3 -106,156.7 6.8,35.1 26.8,65.4 56.4,85.4 29.6,20 65.2,27.3 100.3,20.5 72.4,-14 120,-84.3 106,-156.7 -6.8,-35.1 -26.8,-65.4 -56.4,-85.4 -22.4,-15.1 -48.2,-23 -74.6,-23 z"
   id="path117" />
							</g>
						</g>
					</g>
					<g
   id="g123">
						<g
   id="g122">
							<g
   id="g121">
								<path
   class="st0"
   d="m 1186.3,1884.4 -8.9,-45.9 c -6.1,-31.4 -36.4,-51.9 -67.8,-45.8 l -90.6,17.5 c -31.4,6.1 -51.9,36.4 -45.8,67.8 l 8.9,45.9 c 6.1,31.4 36.4,51.9 67.8,45.8 l 90.6,-17.5 c 31.4,-6.2 51.9,-36.5 45.8,-67.8 z"
   id="path120" />
							</g>
						</g>
					</g>
					<g
   id="g126">
						<g
   id="g125">
							<g
   id="g124">
								
									<circle
   transform="matrix(0.9818,-0.1897,0.1897,0.9818,-330.9453,251.7858)"
   class="st2"
   cx="1149.5"
   cy="1854.3"
   id="ellipse123"
   r="13.6" />
							</g>
						</g>
					</g>
					<g
   id="g129">
						<g
   id="g128">
							<g
   id="g127">
								
									<circle
   transform="matrix(0.9818,-0.1897,0.1897,0.9818,-326.8476,247.3731)"
   class="st2"
   cx="1128.5"
   cy="1830.7"
   id="ellipse126"
   r="8.8000002" />
							</g>
						</g>
					</g>
					<g
   id="g134">
						<g
   id="g131">
							<g
   id="g130">
								<path
   class="st2"
   d="m 1305.3,2429.9 c -29.8,2.6 -56.1,-15 -62.3,-40.2 -0.6,-2.3 -1,-4.8 -1.2,-7.2 -0.8,-9.1 1.1,-17.8 5,-25.7 8.6,-17.2 27.1,-30 49.4,-31.9 21.1,-1.8 40.5,6.5 52.2,20.5 2.3,2.7 4.3,5.7 5.9,8.8 2.9,5.5 4.8,11.7 5.4,18.2 2.5,28.9 -21.9,54.7 -54.4,57.5 z"
   id="path129" />
							</g>
						</g>
						<g
   id="g133">
							<g
   id="g132">
								<path
   class="st0"
   d="m 1299.7,2435.5 c -29.4,0 -55.5,-18.4 -61.9,-44.6 -0.6,-2.6 -1.1,-5.3 -1.3,-8 -0.8,-9.8 1.1,-19.6 5.5,-28.6 9.7,-19.5 30.3,-32.9 53.8,-34.9 22.3,-1.9 43.5,6.5 56.8,22.4 2.5,3 4.7,6.3 6.5,9.7 3.4,6.3 5.4,13.1 6,20.2 2.8,31.9 -23.9,60.4 -59.3,63.4 v 0 c -2.1,0.4 -4.1,0.4 -6.1,0.4 z M 1302,2330 c -1.8,0 -3.5,0.1 -5.3,0.2 -19.7,1.7 -37,12.8 -45.1,28.9 -3.6,7.1 -5.1,15 -4.4,22.8 0.2,2.2 0.5,4.4 1,6.4 5.6,22.9 29.9,38.4 56.5,36.1 v 0 c 29.5,-2.5 51.7,-25.8 49.5,-51.8 -0.5,-5.6 -2.1,-11 -4.8,-16.1 -1.5,-2.8 -3.3,-5.5 -5.3,-7.9 -9.8,-11.8 -25.3,-18.6 -42.1,-18.6 z"
   id="path131" />
							</g>
						</g>
					</g>
					<g
   id="g137">
						<g
   id="g136">
							<g
   id="g135">
								<path
   class="st0"
   d="m 1538.8,2385.9 c -15.7,187.2 -180.1,326.1 -367.3,310.4 -64.2,-5.4 -122.7,-28.2 -171.2,-63.5 147.6,46.3 485.9,19.3 535.6,-328.4 4.2,26.5 5.3,53.7 2.9,81.5 z"
   id="path134" />
							</g>
						</g>
					</g>
					<g
   id="g140">
						<g
   id="g139">
							<g
   id="g138">
								<path
   class="st0"
   d="m 1348.4,2345.3 c -54.6,-3.2 -87.5,22.6 -105.4,44.3 -0.6,-2.3 -1,-4.8 -1.2,-7.2 -0.8,-9.1 1.1,-17.8 5,-25.7 8.6,-17.2 27.1,-30 49.4,-31.9 21.2,-1.7 40.6,6.6 52.2,20.5 z"
   id="path137" />
							</g>
						</g>
					</g>
					<g
   id="g145">
						<g
   id="g142">
							<g
   id="g141">
								<path
   class="st2"
   d="m 1149.4,2199.7 c -22.6,1.9 -42.5,-11.4 -47.2,-30.5 -0.4,-1.8 -0.7,-3.6 -0.9,-5.5 -0.6,-6.9 0.8,-13.5 3.8,-19.4 6.5,-13 20.5,-22.7 37.4,-24.2 16,-1.4 30.7,4.9 39.5,15.5 1.7,2.1 3.2,4.3 4.5,6.7 2.2,4.2 3.6,8.8 4.1,13.8 1.9,21.9 -16.6,41.4 -41.2,43.6 z"
   id="path140" />
							</g>
						</g>
						<g
   id="g144">
							<g
   id="g143">
								<path
   class="st0"
   d="m 1145.1,2205.2 c -22.9,0 -43.1,-14.3 -48.1,-34.8 -0.5,-2 -0.8,-4.1 -1,-6.3 -0.7,-7.6 0.8,-15.4 4.3,-22.3 7.6,-15.2 23.6,-25.6 41.8,-27.1 17.3,-1.5 33.8,5 44.1,17.4 2,2.3 3.7,4.9 5.1,7.6 2.6,5 4.2,10.3 4.7,15.8 2.1,24.9 -18.5,47.1 -46.1,49.5 v 0 c -1.6,0.2 -3.2,0.2 -4.8,0.2 z m 1.8,-79.9 c -1.3,0 -2.6,0.1 -3.9,0.2 -14.5,1.2 -27.2,9.4 -33.1,21.2 -2.6,5.2 -3.7,10.9 -3.2,16.6 0.1,1.6 0.4,3.2 0.8,4.6 4.1,16.7 21.9,28.1 41.4,26.4 v 0 c 21.6,-1.9 37.9,-18.8 36.3,-37.8 -0.4,-4.1 -1.5,-8 -3.5,-11.7 -1.1,-2 -2.4,-4 -3.9,-5.7 -7.2,-8.8 -18.6,-13.8 -30.9,-13.8 z"
   id="path142" />
							</g>
						</g>
					</g>
					<g
   id="g148">
						<g
   id="g147">
							<g
   id="g146">
								<path
   class="st0"
   d="m 1182.1,2135.6 c -41.3,-2.4 -66.3,17.1 -79.8,33.6 -0.4,-1.8 -0.7,-3.6 -0.9,-5.5 -0.6,-6.9 0.8,-13.5 3.8,-19.4 6.5,-13 20.5,-22.7 37.4,-24.2 16,-1.4 30.6,4.9 39.5,15.5 z"
   id="path145" />
							</g>
						</g>
					</g>
					<g
   id="g153">
						<g
   id="g150">
							<g
   id="g149">
								<path
   class="st2"
   d="m 1263.8,2574.7 c -11.2,1 -21,-5.6 -23.4,-15.1 -0.2,-0.9 -0.4,-1.8 -0.4,-2.7 -0.3,-3.4 0.4,-6.7 1.9,-9.6 3.2,-6.5 10.2,-11.3 18.5,-12 7.9,-0.7 15.2,2.4 19.6,7.7 0.9,1 1.6,2.1 2.2,3.3 1.1,2.1 1.8,4.4 2,6.8 1,10.8 -8.2,20.5 -20.4,21.6 z"
   id="path148" />
							</g>
						</g>
						<g
   id="g152">
							<g
   id="g151">
								<path
   class="st0"
   d="m 1261.7,2580.1 c -12.6,0 -23.7,-8 -26.5,-19.3 -0.3,-1.1 -0.5,-2.3 -0.6,-3.5 -0.4,-4.3 0.5,-8.6 2.4,-12.5 4.2,-8.4 12.9,-14.1 22.9,-14.9 9.5,-0.8 18.5,2.8 24.2,9.6 1.1,1.3 2.1,2.7 2.8,4.2 1.5,2.8 2.4,5.8 2.6,8.9 1.2,13.8 -10.2,26.1 -25.3,27.4 v 0 c -0.8,0.1 -1.6,0.1 -2.5,0.1 z m 0.8,-39.5 c -0.5,0 -1.1,0 -1.6,0.1 -6.2,0.5 -11.7,4 -14.2,9 -1.1,2.2 -1.5,4.4 -1.3,6.8 0.1,0.6 0.2,1.3 0.3,1.9 1.7,7 9.3,11.7 17.7,11 9.2,-0.8 16.2,-7.9 15.5,-15.8 -0.1,-1.7 -0.6,-3.3 -1.4,-4.7 -0.4,-0.8 -1,-1.6 -1.6,-2.4 -3.1,-3.8 -8.1,-5.9 -13.4,-5.9 z"
   id="path150" />
							</g>
						</g>
					</g>
					<g
   id="g156">
						<g
   id="g155">
							<g
   id="g154">
								<path
   class="st0"
   d="m 1280,2542.9 c -20.5,-1.2 -32.8,8.5 -39.5,16.6 -0.2,-0.9 -0.4,-1.8 -0.4,-2.7 -0.3,-3.4 0.4,-6.7 1.9,-9.6 3.2,-6.5 10.2,-11.3 18.5,-12 7.9,-0.6 15.1,2.5 19.5,7.7 z"
   id="path153" />
							</g>
						</g>
					</g>
					<g
   id="g161">
						<g
   id="g158">
							<g
   id="g157">
								<path
   class="st2"
   d="m 1039.1,2542.2 c -22.9,2 -43,-11.5 -47.8,-30.9 -0.4,-1.8 -0.7,-3.7 -0.9,-5.6 -0.6,-7 0.8,-13.7 3.8,-19.7 6.6,-13.2 20.8,-23 37.9,-24.5 16.2,-1.4 31.1,5 40,15.7 1.8,2.1 3.3,4.4 4.5,6.8 2.3,4.3 3.7,8.9 4.1,13.9 2.1,22.3 -16.6,42.1 -41.6,44.3 z"
   id="path156" />
							</g>
						</g>
						<g
   id="g160">
							<g
   id="g159">
								<path
   class="st0"
   d="m 1034.8,2547.8 c -23.2,0 -43.7,-14.5 -48.7,-35.2 -0.5,-2 -0.9,-4.2 -1,-6.4 -0.7,-7.7 0.8,-15.5 4.4,-22.6 7.7,-15.4 23.9,-25.9 42.3,-27.5 17.5,-1.5 34.2,5.1 44.6,17.6 2,2.4 3.7,5 5.2,7.7 2.7,5 4.2,10.4 4.7,16 2.2,25.2 -18.8,47.6 -46.7,50 v 0 c -1.6,0.3 -3.2,0.4 -4.8,0.4 z m 1.8,-81.1 c -1.3,0 -2.6,0.1 -4,0.2 -14.7,1.3 -27.6,9.5 -33.6,21.5 -2.6,5.3 -3.8,11.1 -3.3,16.8 0.1,1.6 0.4,3.2 0.8,4.7 4.2,17 22.2,28.5 42.1,26.8 v 0 c 22,-1.9 38.5,-19.1 36.8,-38.4 -0.4,-4.2 -1.5,-8.1 -3.5,-11.9 -1.1,-2.1 -2.4,-4 -3.9,-5.8 -7.4,-8.8 -18.9,-13.9 -31.4,-13.9 z"
   id="path158" />
							</g>
						</g>
					</g>
					<g
   id="g164">
						<g
   id="g163">
							<g
   id="g162">
								<path
   class="st0"
   d="m 1072.2,2477.3 c -41.9,-2.4 -67.2,17.3 -80.9,34 -0.4,-1.8 -0.7,-3.7 -0.9,-5.6 -0.6,-7 0.8,-13.7 3.8,-19.7 6.6,-13.2 20.8,-23 37.9,-24.5 16.3,-1.3 31.1,5 40.1,15.8 z"
   id="path161" />
							</g>
						</g>
					</g>
					<g
   id="g169">
						<g
   id="g166">
							<g
   id="g165">
								<path
   class="st2"
   d="m 1082.6,2324.2 c -13.1,1.1 -24.7,-6.6 -27.4,-17.7 -0.3,-1 -0.4,-2.1 -0.5,-3.2 -0.3,-4 0.5,-7.9 2.2,-11.3 3.8,-7.6 11.9,-13.2 21.8,-14.1 9.3,-0.8 17.8,2.9 23,9 1,1.2 1.9,2.5 2.6,3.9 1.3,2.4 2.1,5.1 2.4,8 0.9,12.8 -9.8,24.2 -24.1,25.4 z"
   id="path164" />
							</g>
						</g>
						<g
   id="g168">
							<g
   id="g167">
								<path
   class="st0"
   d="m 1080.1,2329.7 c -14.3,0 -27,-9 -30.2,-21.9 -0.3,-1.3 -0.5,-2.6 -0.7,-4 -0.4,-4.9 0.5,-9.8 2.7,-14.2 4.7,-9.5 14.8,-16.1 26.1,-17 10.8,-0.9 21.1,3.2 27.6,10.9 1.2,1.5 2.3,3.1 3.2,4.8 1.7,3.1 2.7,6.5 3,10.1 1.4,15.7 -11.6,29.7 -28.9,31.2 v 0 c -0.8,0.1 -1.8,0.1 -2.8,0.1 z m 1,-46.5 c -0.7,0 -1.4,0 -2.1,0.1 -7.7,0.7 -14.3,4.9 -17.4,11.1 -1.3,2.7 -1.9,5.5 -1.6,8.4 0.1,0.8 0.2,1.6 0.4,2.4 2.1,8.7 11.5,14.5 21.7,13.6 v 0 c 11.3,-1 19.9,-9.7 19.1,-19.5 -0.2,-2.1 -0.8,-4.1 -1.8,-5.9 -0.6,-1 -1.2,-2 -2,-2.9 -3.8,-4.7 -9.8,-7.3 -16.3,-7.3 z"
   id="path166" />
							</g>
						</g>
					</g>
					<g
   id="g172">
						<g
   id="g171">
							<g
   id="g170">
								<path
   class="st0"
   d="m 1101.6,2287 c -24,-1.4 -38.6,9.9 -46.4,19.5 -0.3,-1 -0.4,-2.1 -0.5,-3.2 -0.3,-4 0.5,-7.9 2.2,-11.3 3.8,-7.6 11.9,-13.2 21.8,-14.1 9.2,-0.8 17.7,2.9 22.9,9.1 z"
   id="path169" />
							</g>
						</g>
					</g>
					<g
   id="g177">
						<g
   id="g174">
							<g
   id="g173">
								<path
   class="st2"
   d="m 1404.6,2286.4 c -10.6,0.9 -19.9,-5.3 -22.1,-14.3 -0.2,-0.8 -0.3,-1.7 -0.4,-2.6 -0.3,-3.2 0.4,-6.3 1.8,-9.1 3,-6.1 9.6,-10.6 17.5,-11.3 7.5,-0.6 14.4,2.3 18.5,7.3 0.8,1 1.5,2 2.1,3.1 1,2 1.7,4.1 1.9,6.4 0.9,10.4 -7.8,19.5 -19.3,20.5 z"
   id="path172" />
							</g>
						</g>
						<g
   id="g176">
							<g
   id="g175">
								<path
   class="st0"
   d="m 1402.6,2291.9 c -12,0 -22.7,-7.6 -25.3,-18.5 -0.3,-1.1 -0.5,-2.2 -0.6,-3.4 -0.4,-4.1 0.4,-8.2 2.3,-12 4,-8 12.4,-13.5 21.9,-14.3 9,-0.8 17.7,2.7 23.1,9.2 1,1.2 2,2.6 2.7,4.1 1.4,2.7 2.3,5.5 2.5,8.5 1.1,13.2 -9.7,25 -24.2,26.3 v 0 c -0.8,0.1 -1.6,0.1 -2.4,0.1 z m 0.8,-37.4 c -0.5,0 -1,0 -1.5,0.1 -5.8,0.5 -10.8,3.7 -13.2,8.4 -1,2 -1.4,4.1 -1.2,6.2 0.1,0.6 0.1,1.2 0.3,1.7 1.6,6.5 8.6,10.9 16.4,10.2 8.6,-0.7 15,-7.3 14.4,-14.6 -0.1,-1.5 -0.6,-3 -1.3,-4.4 -0.4,-0.8 -0.9,-1.5 -1.5,-2.2 -2.9,-3.4 -7.6,-5.4 -12.4,-5.4 z"
   id="path174" />
							</g>
						</g>
					</g>
					<g
   id="g180">
						<g
   id="g179">
							<g
   id="g178">
								<path
   class="st0"
   d="m 1419.9,2256.4 c -19.4,-1.1 -31.1,8 -37.4,15.7 -0.2,-0.8 -0.3,-1.7 -0.4,-2.6 -0.3,-3.2 0.4,-6.3 1.8,-9.1 3,-6.1 9.6,-10.6 17.5,-11.3 7.5,-0.6 14.3,2.4 18.5,7.3 z"
   id="path177" />
							</g>
						</g>
					</g>
				</g>
				<g
   id="Number_4">
					<g
   id="g186">
						<g
   id="g185">
							<g
   id="g182">
								<g
   id="g181">
									<path
   class="st3"
   d="m 1657.9,2143.8 c 3.1,-5.4 8.4,-9.2 16,-11.3 7.5,-2.1 17.4,-3.2 29.6,-3.2 12.2,0 22,1.3 29.3,3.8 7.3,2.5 12.6,6.6 15.7,12.2 3.1,5.6 4.9,10.7 5.5,15.4 0.6,4.6 0.9,11.4 0.9,20.3 v 322.6 c 0,15.1 -1.8,26.2 -5.5,33.4 -3.7,7.2 -9.3,11.9 -16.8,14.2 -7.5,2.3 -16.9,3.5 -28.1,3.5 -11.2,0 -20.1,-1 -26.7,-2.9 -6.6,-1.9 -11.6,-4.3 -15.1,-7 -3.5,-2.7 -6,-6.6 -7.5,-11.6 -2.3,-6.6 -3.5,-16.6 -3.5,-30.2 v -70.8 h -157.2 c -27.1,0 -43.1,-7.3 -48.2,-22 -1.9,-6.2 -2.9,-14.5 -2.9,-25 0,-10.4 0.6,-18.2 1.7,-23.2 l 48.2,-194.4 c 2.3,-8.9 4.4,-15.7 6.1,-20.3 1.7,-4.6 5.2,-9.1 10.4,-13.3 5.2,-4.3 11.9,-6.4 20,-6.4 8.1,0 17,1.4 26.7,4.1 27.1,7.4 40.6,19.7 40.6,37.1 0,6.2 -1.4,14.3 -4.1,24.4 -0.4,0.8 -0.6,1.4 -0.6,1.7 l -35.4,141.6 h 94.6 V 2178 c 0,-8.9 0.3,-15.5 0.9,-19.7 0.5,-4.3 2.3,-9.1 5.4,-14.5 z"
   id="path180" />
								</g>
							</g>
							<g
   id="g184">
								<g
   id="g183">
									<path
   class="st0"
   d="m 1704.3,2560 c -11.9,0 -21.1,-1 -28.2,-3.1 -7.3,-2.1 -12.8,-4.7 -16.9,-7.9 -4.3,-3.4 -7.5,-8.1 -9.4,-14.2 -2.5,-7.2 -3.8,-17.6 -3.8,-31.9 v -65.4 h -151.8 c -29.5,0 -47.4,-8.6 -53.3,-25.7 -2.2,-6.9 -3.2,-15.6 -3.2,-26.7 0,-11 0.6,-18.9 1.9,-24.4 l 48.2,-194.5 c 2.4,-9.2 4.5,-16.1 6.3,-20.9 2.1,-5.5 6.1,-10.8 12.1,-15.6 6.2,-5 14.1,-7.6 23.4,-7.6 8.6,0 18,1.4 28.1,4.3 29.6,8 44.6,22.3 44.6,42.3 0,6.7 -1.4,15.1 -4.2,25.8 l -0.1,0.5 -0.2,0.5 c 0,0 0,0 0,0 l -0.1,0.6 -33.7,134.9 h 82.3 v -153 c 0,-9.2 0.3,-15.9 0.9,-20.5 0.7,-5 2.7,-10.4 6.2,-16.5 3.8,-6.7 10.3,-11.3 19.2,-13.8 8,-2.3 18.5,-3.4 31.1,-3.4 12.7,0 23.2,1.4 31,4.1 8.6,3 14.9,7.9 18.6,14.7 3.4,6.2 5.5,12 6.1,17.3 0.6,4.9 0.9,11.8 0.9,21 v 322.6 c 0,16.1 -2,27.8 -6.1,35.8 -4.4,8.5 -11.1,14.2 -20,16.9 -8.2,2.5 -18.2,3.8 -29.9,3.8 z m -174.6,-427.1 c -6.9,0 -12.3,1.7 -16.6,5.2 -4.4,3.6 -7.4,7.3 -8.8,11.1 -1.7,4.4 -3.7,11.1 -5.9,19.8 l -48.1,194.3 c -1,4.5 -1.6,11.9 -1.6,21.9 0,9.9 0.9,17.7 2.7,23.3 4.1,12.1 18.6,18.3 43,18.3 H 1657 v 76.2 c 0,12.9 1.1,22.4 3.2,28.4 l 0.1,0.2 c 1.2,4 3.1,6.9 5.7,8.9 2.9,2.3 7.4,4.3 13.3,6 6,1.8 14.5,2.7 25.2,2.7 10.6,0 19.6,-1.1 26.6,-3.2 6.1,-1.9 10.6,-5.7 13.6,-11.5 3.3,-6.4 4.9,-16.8 4.9,-30.9 V 2181 c 0,-8.6 -0.3,-15.2 -0.8,-19.6 -0.5,-3.9 -2.1,-8.4 -4.9,-13.4 -2.4,-4.4 -6.6,-7.6 -12.7,-9.7 -6.8,-2.3 -16,-3.5 -27.5,-3.5 -11.6,0 -21.1,1 -28.1,3 -6.2,1.7 -10.3,4.6 -12.7,8.8 v 0 c -2.7,4.8 -4.4,9 -4.8,12.6 -0.5,4 -0.8,10.4 -0.8,19 V 2342 H 1550 l 37,-147.9 c 0.1,-0.8 0.4,-1.7 0.8,-2.7 2.5,-9.4 3.8,-16.9 3.8,-22.5 0,-14.8 -12,-25.2 -36.6,-31.9 -9.3,-2.8 -17.8,-4.1 -25.3,-4.1 z m 67.9,62.9 z"
   id="path182" />
								</g>
							</g>
						</g>
					</g>
					<g
   id="g192">
						<g
   id="g191">
							<g
   id="g188">
								<g
   id="g187">
									<path
   class="st3"
   d="m 788.9,2143.8 c 3.1,-5.4 8.4,-9.2 16,-11.3 7.5,-2.1 17.4,-3.2 29.6,-3.2 12.2,0 22,1.3 29.3,3.8 7.3,2.5 12.6,6.6 15.7,12.2 3.1,5.6 4.9,10.7 5.5,15.4 0.6,4.6 0.9,11.4 0.9,20.3 v 322.6 c 0,15.1 -1.8,26.2 -5.5,33.4 -3.7,7.2 -9.3,11.9 -16.8,14.2 -7.5,2.3 -16.9,3.5 -28.1,3.5 -11.2,0 -20.1,-1 -26.7,-2.9 -6.6,-1.9 -11.6,-4.3 -15.1,-7 -3.5,-2.7 -6,-6.6 -7.5,-11.6 -2.3,-6.6 -3.5,-16.6 -3.5,-30.2 v -70.8 H 625.2 c -27.1,0 -43.1,-7.3 -48.2,-22 -1.9,-6.2 -2.9,-14.5 -2.9,-25 0,-10.4 0.6,-18.2 1.7,-23.2 L 624,2167.6 c 2.3,-8.9 4.4,-15.7 6.1,-20.3 1.7,-4.6 5.2,-9.1 10.4,-13.3 5.2,-4.3 11.9,-6.4 20,-6.4 8.1,0 17,1.4 26.7,4.1 27.1,7.4 40.6,19.7 40.6,37.1 0,6.2 -1.4,14.3 -4.1,24.4 -0.4,0.8 -0.6,1.4 -0.6,1.7 l -35.4,141.6 h 94.6 V 2178 c 0,-8.9 0.3,-15.5 0.9,-19.7 0.7,-4.3 2.6,-9.1 5.7,-14.5 z"
   id="path186" />
								</g>
							</g>
							<g
   id="g190">
								<g
   id="g189">
									<path
   class="st0"
   d="m 835.3,2560 c -11.9,0 -21.1,-1 -28.2,-3.1 -7.3,-2.1 -12.8,-4.7 -16.9,-7.9 -4.3,-3.4 -7.5,-8.1 -9.4,-14.2 -2.5,-7.2 -3.8,-17.6 -3.8,-31.9 v -65.4 H 625.2 c -29.5,0 -47.4,-8.6 -53.3,-25.7 -2.2,-6.9 -3.2,-15.6 -3.2,-26.7 0,-11 0.6,-18.9 1.9,-24.4 l 48.2,-194.5 c 2.4,-9.2 4.5,-16.1 6.3,-20.9 2.1,-5.5 6.1,-10.8 12.1,-15.6 6.2,-5 14.1,-7.6 23.4,-7.6 8.6,0 18,1.4 28.1,4.3 29.6,8 44.6,22.3 44.6,42.3 0,6.7 -1.4,15.1 -4.2,25.8 l -0.1,0.5 -0.2,0.5 c 0,0 0,0 0,0 l -0.1,0.6 -33.9,134.9 h 82.3 v -153 c 0,-9.2 0.3,-15.9 0.9,-20.5 0.7,-5 2.7,-10.4 6.2,-16.5 3.8,-6.7 10.3,-11.3 19.2,-13.8 8,-2.3 18.5,-3.4 31.1,-3.4 12.7,0 23.2,1.4 31,4.1 8.6,3 14.9,7.9 18.6,14.7 3.4,6.2 5.5,12 6.1,17.3 0.6,4.9 0.9,11.8 0.9,21 v 322.6 c 0,16.1 -2,27.8 -6.1,35.8 -4.4,8.5 -11.1,14.2 -20,16.9 -8,2.5 -18,3.8 -29.7,3.8 z M 660.6,2132.9 c -6.9,0 -12.3,1.7 -16.6,5.2 -4.4,3.6 -7.4,7.3 -8.8,11.1 -1.7,4.4 -3.7,11.1 -5.9,19.8 l -48.1,194.3 c -1,4.5 -1.6,11.9 -1.6,21.9 0,9.9 0.9,17.7 2.7,23.3 4.1,12.1 18.6,18.3 43,18.3 h 162.6 v 76.2 c 0,12.9 1.1,22.4 3.2,28.4 l 0.1,0.2 c 1.2,4 3.1,6.9 5.7,8.9 2.9,2.3 7.4,4.3 13.3,6 6,1.8 14.5,2.7 25.2,2.7 10.6,0 19.6,-1.1 26.6,-3.2 6.1,-1.9 10.6,-5.7 13.6,-11.5 3.3,-6.4 4.9,-16.8 4.9,-30.9 V 2181 c 0,-8.6 -0.3,-15.2 -0.8,-19.6 -0.5,-3.9 -2.1,-8.4 -4.9,-13.4 -2.4,-4.4 -6.6,-7.6 -12.7,-9.7 -6.8,-2.3 -16,-3.5 -27.5,-3.5 -11.6,0 -21.1,1 -28.1,3 -6.2,1.7 -10.3,4.6 -12.7,8.8 v 0 c -2.7,4.8 -4.4,9 -4.8,12.6 -0.5,4 -0.8,10.4 -0.8,19 V 2342 H 681 l 37,-147.9 c 0.1,-0.8 0.4,-1.7 0.8,-2.7 2.5,-9.4 3.8,-16.9 3.8,-22.5 0,-14.8 -12,-25.2 -36.6,-31.9 -9.3,-2.8 -17.8,-4.1 -25.4,-4.1 z m 68,62.9 z"
   id="path188" />
								</g>
							</g>
						</g>
					</g>
				</g>
			</g>
		</g>

</svg>
